<?xml version="1.0" encoding="utf-8"?>
<!-- Generator: Adobe Illustrator 26.1.0, SVG Export Plug-In . SVG Version: 6.00 Build 0)  -->
<svg version="1.1" id="圖層_1" xmlns="http://www.w3.org/2000/svg" xmlns:xlink="http://www.w3.org/1999/xlink" x="0px" y="0px"
	 viewBox="0 0 750 302" style="enable-background:new 0 0 750 302;" xml:space="preserve">
<style type="text/css">
	.st0{fill:#FF4438;}
	.st1{fill:#FFA400;}
	.st2{fill:#636569;}
</style>
<g>
	<polygon class="st0" points="136.32,93.87 98.31,150.24 60.3,93.87 31.23,93.87 31.23,208.44 58.26,208.44 58.26,131.6 
		98.31,188.74 138.36,131.6 138.36,208.44 165.39,208.44 165.39,93.87 	"/>
	<path class="st0" d="M184.07,208.44V93.81h65.24v23.09h-41.3v22.25h37.93v23.09h-37.93v23.09h41.3v23.09H184.07z"/>
	<path class="st0" d="M293.48,116.88h-27.84V93.76h79.64v23.11h-27.84v91.61h-23.96V116.88z"/>
	<path class="st1" d="M653.69,208.5V93.75H719v23.12h-41.34v22.27h37.97v23.12h-37.97v23.12H719v23.12H653.69z"/>
	<path class="st1" d="M583.53,137.4v21.08h28.77c0,0.65,0.16,1.8,0.16,2.45c0,12.1-10.62,24.36-28.43,24.36
		c-18.8,0-32.2-15.37-32.2-34.16c0-19.78,14.38-34.16,33.67-34.16c11.77,0,22.55,3.11,30.07,7.19V98.98
		c-7.35-3.27-18.63-5.23-30.07-5.23c-33.35,0-57.54,24.85-57.54,57.38c0,32.36,23.2,57.37,55.41,57.37
		c35.63,0,54.27-25.66,54.27-54.92c0-5.56-0.65-11.93-1.47-16.18H583.53z"/>
	<g>
		<g>
			<polygon class="st1" points="468.1,93.76 447.79,93.76 493.72,173.32 463,173.32 452.7,155.55 432.43,155.55 452.85,190.91 
				452.85,190.91 524.19,190.91 			"/>
			<polygon class="st1" points="417.07,93.76 396.76,93.76 422.27,137.96 432.43,120.36 			"/>
		</g>
		<g>
			<g>
				<polygon class="st2" points="452.85,190.91 452.85,190.91 442.69,208.5 514.03,208.5 524.19,190.91 				"/>
			</g>
			<polygon class="st2" points="422.17,173.32 412.01,190.91 381.3,190.91 381.3,190.91 406.91,146.55 406.91,146.54 396.76,128.95 
				350.83,208.5 422.17,208.5 422.37,208.5 432.43,190.91 			"/>
			<polygon class="st2" points="457.97,146.59 447.79,128.95 432.43,155.55 452.7,155.55 			"/>
			<polygon class="st0" points="447.79,93.76 422.27,137.96 396.76,93.76 340.67,190.91 350.83,208.5 396.76,128.95 412.12,155.55 
				401.86,173.32 401.86,173.32 391.46,173.32 381.3,190.91 412.02,190.91 422.17,173.32 442.69,208.5 452.85,190.91 432.43,155.55 
				447.79,128.95 473.4,173.32 493.72,173.32 			"/>
		</g>
	</g>
</g>
</svg>
